<svg width="466" height="318" viewBox="0 0 466 318" fill="none" xmlns="http://www.w3.org/2000/svg">
<path d="M345.965 194.724C345.871 195.594 345.778 196.434 345.623 197.304C345.56 197.74 345.467 198.206 345.374 198.641C345.25 199.294 345.125 199.978 344.939 200.631C355.444 202.279 365.328 204.175 374.59 206.227C410.085 215.026 430.972 226.779 430.972 238.997C430.972 264.648 340.308 286.318 233.016 286.318C125.723 286.318 35.0596 264.648 35.0596 238.997C35.0596 226.095 57.811 214.156 94.3935 205.481C125.04 198.952 160.69 194.755 198.702 193.169C198.484 192.703 198.329 192.236 198.142 191.77C197.832 191.024 197.552 190.278 197.303 189.5C197.055 188.754 196.806 188.008 196.619 187.262C85.2246 192.205 0 219.41 0 252.242C0 288.557 104.308 318 233.016 318C361.723 318 466.031 288.557 466.031 252.242C466 227.494 417.544 205.948 345.965 194.724ZM396.067 292.972C352.585 305.253 294.681 311.999 233.016 311.999C99.3043 311.999 6.12299 280.504 6.12299 252.211C6.12299 241.049 20.7933 229.297 46.3109 219.317C37.4528 224.789 31.3609 231.318 31.3609 238.997C31.3609 267.539 119.911 289.894 232.984 289.894C346.058 289.894 434.608 267.539 434.608 238.997C434.608 232.064 429.293 225.411 419.409 219.348C445.269 229.39 459.846 241.049 459.846 252.242C459.877 266.482 436.038 281.717 396.067 292.972Z" fill="url(#paint0_linear_3556_8827)"/>
<path d="M12.277 154.212L16.6284 143.361C17.0635 142.273 17.5608 141.309 18.1203 140.47C18.6798 139.63 19.3014 138.977 20.0163 138.511C20.7311 138.045 21.5392 137.765 22.4095 137.703C23.3109 137.64 24.3055 137.827 25.3933 138.231C26.5744 138.666 27.4447 139.319 28.0352 140.159C28.6257 140.998 28.9676 142.024 29.0609 143.237C30.0555 141.993 31.2055 141.185 32.542 140.905C33.8785 140.594 35.2771 140.75 36.7379 141.309C37.919 141.776 38.8514 142.397 39.5352 143.175C40.219 143.952 40.6852 144.854 40.9339 145.817C41.1825 146.781 41.2447 147.807 41.1204 148.895C40.996 149.984 40.7163 151.041 40.3123 152.067L35.8366 163.228L12.277 154.212ZM23.8392 152.782L25.8906 147.652C26.2636 146.75 26.3257 145.911 26.1082 145.164C25.8906 144.418 25.3001 143.859 24.3055 143.486C23.746 143.268 23.2798 143.206 22.8446 143.268C22.4095 143.33 22.0365 143.486 21.6946 143.734C21.3838 143.983 21.073 144.294 20.8244 144.698C20.5757 145.102 20.3581 145.506 20.1717 145.973L18.3379 150.668L23.8392 152.782ZM33.8474 156.606L36.0231 151.196C36.2095 150.699 36.3649 150.201 36.4582 149.735C36.5514 149.237 36.5204 148.771 36.4271 148.336C36.3339 147.9 36.1474 147.496 35.8055 147.154C35.4947 146.812 35.0285 146.501 34.4068 146.284C33.1947 145.817 32.2001 145.817 31.423 146.284C30.646 146.75 30.0244 147.527 29.5893 148.647L27.3825 154.181L33.8474 156.606Z" fill="#E5A724"/>
<path d="M19.923 118.737L22.0987 114.757L28.3771 113.731L26.419 117.307L22.8447 117.866L24.3055 121.162L22.5028 124.458L19.923 118.737ZM23.4041 128.064L32.3866 111.773L36.5204 113.949L30.1798 125.453L34.9663 127.971L40.7785 117.4L44.5704 119.39L38.7582 129.961L44.2285 132.821L50.6934 121.069L54.7961 123.245L45.6893 139.786L23.4041 128.064ZM52.061 135.588L54.3299 131.484L57.9664 133.412L55.6975 137.516L52.061 135.588Z" fill="#E5A724"/>
<path d="M36.5825 105.026L39.7839 100.611L59.738 101.792L59.7691 101.73L45.9069 92.123L48.9217 87.9568L69.5596 102.259L66.3583 106.705L46.4663 105.523L46.4352 105.585L60.2664 115.162L57.2515 119.328L36.5825 105.026Z" fill="#E5A724"/>
<path d="M54.6096 81.1167L58.3704 77.106L65.488 83.5418L72.4502 76.1732L65.3326 69.7374L69.0934 65.7266L87.68 82.5158L83.9192 86.5888L75.9002 79.3445L68.938 86.682L76.957 93.9263L73.1651 97.937L54.6096 81.1167Z" fill="#E5A724"/>
<path d="M110.152 64.2653L105.148 67.9652L83.3286 53.1036L87.8975 49.7147L103.127 60.2546L103.189 60.2235L97.0043 42.999L101.573 39.6101L110.152 64.2653Z" fill="#E5A724"/>
<path d="M106.453 36.7186L111.146 33.8271L124.635 54.7515L119.942 57.643L106.453 36.7186Z" fill="#E5A724"/>
<path d="M118.419 29.4744L135.234 20.9865L137.379 25.0595L125.506 31.0289L127.992 35.7548L138.902 30.2517L140.891 34.0137L129.981 39.4857L132.81 44.8645L144.931 38.7395L147.076 42.8125L130.013 51.4247L118.419 29.4744ZM120.937 19.8672L125.04 17.8152L130.821 20.4269L127.122 22.2923L123.858 20.7689L123.144 24.2822L119.756 25.9922L120.937 19.8672ZM137.69 51.518L141.948 49.3727L143.844 52.9793L139.586 55.1246L137.69 51.518Z" fill="#E5A724"/>
<path d="M142.631 17.753L147.822 15.8876L163.58 27.8887L163.642 27.8576L157.799 12.281L162.679 10.5088L171.413 33.7339L166.191 35.5993L150.464 23.5982L150.402 23.6292L156.245 39.1748L151.365 40.947L142.631 17.753Z" fill="#E5A724"/>
<path d="M184.001 5.09894L195.252 3.20239C196.806 2.95366 198.174 2.95366 199.355 3.20239C200.536 3.45111 201.53 3.88639 202.338 4.50821C203.147 5.13004 203.799 5.87622 204.297 6.77786C204.794 7.67951 205.105 8.61224 205.26 9.57606C205.447 10.571 205.447 11.5659 205.291 12.5608C205.136 13.5246 204.763 14.4574 204.203 15.2968C203.644 16.1363 202.867 16.8825 201.841 17.5043C200.815 18.1261 199.541 18.5925 197.987 18.8412L192.237 19.805L193.791 28.5416L188.321 29.4744L184.001 5.09894ZM191.491 15.6388L195.749 14.9237C196.371 14.8305 196.961 14.675 197.552 14.4885C198.111 14.3019 198.609 14.0532 198.982 13.7112C199.386 13.3692 199.665 12.9339 199.852 12.4054C200.038 11.8768 200.07 11.2239 199.914 10.4466C199.79 9.66934 199.541 9.07861 199.168 8.64333C198.826 8.20806 198.391 7.89714 197.894 7.7106C197.397 7.52405 196.868 7.43078 196.278 7.43078C195.687 7.43078 195.065 7.49296 194.444 7.58623L190.217 8.33242L191.491 15.6388Z" fill="#E5A724"/>
<path d="M211.321 0.963825L216.884 0.715096L217.351 10.1979L227.576 9.73152L227.11 0.248729L232.643 0L233.824 24.7174L228.26 24.9662L227.763 14.3019L217.537 14.7683L218.034 25.4325L212.471 25.6813L211.321 0.963825Z" fill="#E5A724"/>
<path d="M261.797 17.1934C261.517 20.5201 260.367 22.9452 258.316 24.4376C256.264 25.93 253.56 26.5207 250.203 26.2409C246.784 25.9611 244.205 24.9351 242.495 23.1629C240.755 21.3907 240.04 18.8101 240.32 15.4523L241.594 0.124359L247.126 0.559635L245.852 15.9186C245.79 16.5716 245.79 17.2556 245.852 17.9085C245.914 18.5614 246.101 19.1521 246.443 19.6807C246.784 20.2092 247.251 20.6756 247.903 21.0176C248.556 21.3596 249.426 21.6083 250.576 21.6705C252.566 21.826 253.964 21.5151 254.772 20.7067C255.612 19.8983 256.078 18.5925 256.233 16.727L257.507 1.3991L263.04 1.83437L261.797 17.1934ZM247.468 28.9458L252.224 29.3189L251.882 33.3608L247.126 32.9877L247.468 28.9458Z" fill="#E5A724"/>
<path d="M283.926 22.5721C283.709 23.3805 283.678 24.0956 283.802 24.7174C283.958 25.3393 284.206 25.8989 284.61 26.3963C285.014 26.8627 285.512 27.2669 286.102 27.6089C286.724 27.9509 287.376 28.1996 288.091 28.4173C288.558 28.5416 289.086 28.6349 289.676 28.6971C290.236 28.7593 290.795 28.7593 291.355 28.6349C291.883 28.5416 292.381 28.324 292.816 28.0131C293.251 27.7022 293.531 27.2358 293.686 26.6451C293.872 25.9922 293.81 25.4325 293.468 24.904C293.158 24.4065 292.691 23.9091 292.101 23.4427C291.479 22.9763 290.764 22.541 289.956 22.1369C289.148 21.7638 288.34 21.2974 287.501 20.831C286.662 20.3647 285.822 19.8672 285.045 19.3076C284.268 18.7479 283.616 18.1261 283.056 17.4421C282.528 16.7581 282.124 15.9808 281.906 15.1103C281.689 14.2397 281.751 13.2448 282.031 12.1255C282.372 10.8819 282.932 9.88696 283.709 9.14078C284.486 8.3635 285.387 7.80386 286.444 7.43076C287.47 7.05767 288.589 6.87112 289.739 6.87112C290.92 6.87112 292.039 6.99549 293.158 7.3064C294.432 7.6484 295.613 8.11477 296.732 8.67441C297.82 9.26514 298.752 9.98024 299.498 10.8508C300.244 11.7213 300.741 12.6852 301.021 13.8044C301.301 14.9237 301.239 16.1674 300.866 17.5354L295.675 16.1674C295.831 15.4523 295.831 14.7994 295.706 14.2708C295.582 13.7423 295.333 13.2759 294.96 12.9028C294.587 12.5297 294.152 12.1877 293.593 11.939C293.064 11.6902 292.474 11.4726 291.821 11.2861C291.386 11.1617 290.951 11.0995 290.485 11.0684C290.018 11.0373 289.583 11.0995 289.179 11.2239C288.775 11.3482 288.402 11.5659 288.06 11.8457C287.749 12.1255 287.501 12.5297 287.376 13.0272C287.252 13.4935 287.221 13.8977 287.345 14.2397C287.439 14.5817 287.749 14.9237 288.216 15.2968C288.682 15.6699 289.366 16.1052 290.236 16.6026C291.106 17.1001 292.256 17.753 293.686 18.5303C293.966 18.6858 294.339 18.8723 294.774 19.121C295.209 19.3698 295.675 19.6807 296.172 20.0227C296.639 20.3647 297.105 20.7999 297.571 21.2663C298.006 21.7949 298.379 22.3234 298.69 22.9141C299.001 23.536 299.187 24.1889 299.281 24.9662C299.374 25.7123 299.281 26.5518 299.032 27.4224C298.721 28.5105 298.255 29.4744 297.54 30.3138C296.825 31.1533 295.986 31.7751 294.929 32.2415C293.872 32.7078 292.691 32.9566 291.293 33.0188C289.925 33.0809 288.402 32.8944 286.724 32.4591C285.387 32.1171 284.113 31.5886 282.932 30.9357C281.751 30.2827 280.787 29.4744 280.01 28.5105C279.233 27.5778 278.705 26.4896 278.425 25.246C278.145 24.0334 278.208 22.6654 278.643 21.2041L283.926 22.5721Z" fill="#E5A724"/>
<path d="M316.997 15.4523L322.281 17.5354L321.659 43.9318L316.282 41.8486L316.593 36.0346L307.797 32.5835L303.85 36.9673L298.628 34.9153L316.997 15.4523ZM310.718 29.35L316.81 31.744L317.308 22.168L317.246 22.1369L310.718 29.35ZM319.297 13.4935C319.39 13.1826 319.546 12.9339 319.732 12.6852C319.919 12.4986 320.167 12.3121 320.478 12.1566C320.789 12.0012 321.193 11.939 321.721 11.939C321.908 11.939 322.063 11.9079 322.25 11.8768C322.405 11.8457 322.529 11.7835 322.685 11.6903C322.84 11.597 322.933 11.4726 322.996 11.3172C323.058 11.1617 323.089 10.9752 323.089 10.8197C323.089 10.6953 323.058 10.5399 322.964 10.3844C322.871 10.229 322.716 10.1046 322.467 10.0113C322.219 9.91806 322.001 9.88697 321.783 9.88697C321.597 9.91806 321.41 9.98025 321.224 10.1046C321.037 10.229 320.882 10.4155 320.758 10.7264L318.427 9.82479C318.706 9.20297 319.079 8.70551 319.546 8.33242C319.95 7.99041 320.478 7.74169 321.1 7.58623C321.721 7.43077 322.498 7.52405 323.462 7.89714C324.052 8.14587 324.581 8.51896 324.985 8.95424C325.327 9.29624 325.575 9.76261 325.762 10.3222C325.948 10.8819 325.855 11.5348 325.544 12.281C325.389 12.5608 325.233 12.8406 325.047 13.0583C324.86 13.2759 324.643 13.4314 324.363 13.5868C324.083 13.7423 323.741 13.8355 323.337 13.8666C323.12 13.8977 322.933 13.9288 322.747 13.991C322.591 14.0532 322.436 14.1154 322.312 14.2086C322.187 14.3019 322.063 14.3952 322.001 14.5506L319.297 13.4935Z" fill="#E5A724"/>
<path d="M336.733 23.7225L341.551 26.3342L342.546 45.8594L342.608 45.8905L350.844 31.3709L355.382 33.8582L343.105 55.4977L338.256 52.8549L337.293 33.3919L337.231 33.3608L328.994 47.8492L324.456 45.362L336.733 23.7225Z" fill="#E5A724"/>
<path d="M373.596 46.046L377.885 49.5282L371.669 56.8346L379.532 63.2394L385.748 55.9329L390.038 59.4151L373.875 78.4429L369.586 74.9607L376.548 66.7526L368.685 60.3479L361.723 68.5559L357.433 65.0737L373.596 46.046Z" fill="#E5A724"/>
<path d="M401.258 70.4214L405.143 74.4943L393.146 98.1547L389.198 94.0196L391.996 88.8895L385.531 82.1427L380.061 84.5057L376.207 80.4949L401.258 70.4214ZM389.571 80.4016L394.047 85.0964L398.647 76.6085L398.585 76.5463L389.571 80.4016ZM404.117 62.8973L407.909 66.877L406.573 72.66L404.18 70.1416L404.117 62.8973Z" fill="#E5A724"/>
<path d="M423.388 96.227L426.371 100.766L417.824 118.426L417.855 118.488L432.122 109.503L434.95 113.793L413.69 127.163L410.676 122.592L419.223 104.964L419.192 104.901L404.957 113.856L402.128 109.565L423.388 96.227Z" fill="#E5A724"/>
<path d="M416.985 141.309L419.005 145.538L415.244 147.248L413.224 143.019L416.985 141.309ZM427.335 125.826C429.013 125.048 430.723 124.582 432.432 124.396C434.142 124.209 435.789 124.364 437.312 124.8C438.866 125.235 440.265 126.012 441.539 127.069C442.813 128.158 443.87 129.557 444.709 131.298C445.549 133.039 445.984 134.718 446.015 136.366C446.046 138.013 445.735 139.568 445.113 140.998C444.461 142.428 443.528 143.765 442.316 144.916C441.073 146.097 439.612 147.061 437.934 147.838C436.286 148.584 434.608 149.051 432.93 149.206C431.22 149.362 429.635 149.237 428.112 148.771C426.589 148.336 425.19 147.558 423.916 146.47C422.642 145.382 421.585 143.983 420.777 142.242C419.938 140.501 419.503 138.822 419.472 137.174C419.44 135.526 419.72 134.003 420.342 132.573C420.963 131.142 421.865 129.837 423.077 128.686C424.289 127.536 425.688 126.572 427.335 125.826ZM429.697 130.738C428.734 131.173 427.863 131.733 427.055 132.355C426.247 133.008 425.594 133.723 425.097 134.531C424.6 135.34 424.32 136.241 424.258 137.205C424.196 138.169 424.413 139.226 424.942 140.345C425.47 141.465 426.154 142.304 426.962 142.864C427.77 143.423 428.672 143.796 429.604 143.952C430.567 144.107 431.562 144.076 432.557 143.89C433.582 143.703 434.546 143.361 435.509 142.926C436.504 142.46 437.436 141.9 438.276 141.247C439.115 140.594 439.799 139.848 440.296 139.04C440.793 138.231 441.073 137.329 441.166 136.335C441.228 135.371 441.011 134.314 440.482 133.225C439.954 132.106 439.27 131.267 438.462 130.707C437.654 130.147 436.753 129.774 435.789 129.619C434.826 129.463 433.8 129.526 432.774 129.712C431.717 129.93 430.692 130.272 429.697 130.738ZM450.055 126.354L452.013 130.427L449.123 135.961L447.351 132.293L449.03 129.153L445.455 128.344L443.839 124.955L450.055 126.354Z" fill="#E5A724"/>
<path d="M451.858 149.548L453.723 154.678L429.884 162.917L428.019 157.787L451.858 149.548Z" fill="#E5A724"/>
<path d="M31.0812 269.063L37.1109 260.481L38.8825 261.663L36.5204 265.052L39.9704 267.384L42.3326 263.995L44.1042 265.176L38.0744 273.757L36.3028 272.576L38.9447 268.814L35.4636 266.482L32.8217 270.244L31.0812 269.063Z" fill="#E5A724"/>
<path d="M50.1339 279.82L48.0515 278.794L48.3001 276.276L44.4771 274.441L42.6123 276.182L40.5609 275.188L48.9839 267.632L51.0353 268.627L50.1339 279.82ZM48.4555 274.41L48.8907 270.306L45.8447 273.135L48.4555 274.41Z" fill="#E5A724"/>
<path d="M52.6826 280.815L56.5367 271.115L58.4948 271.861L59.9867 279.882L62.5664 273.415L64.4313 274.13L60.5772 283.831L58.557 283.054L57.0651 275.219L54.5475 281.561L52.6826 280.815Z" fill="#E5A724"/>
<path d="M65.1461 279.944C65.488 278.95 65.8921 278.141 66.4515 277.55C66.8556 277.115 67.3218 276.773 67.8502 276.493C68.3786 276.214 68.907 276.058 69.4664 275.996C70.1813 275.934 70.9583 276.027 71.7664 276.276C73.2583 276.742 74.3151 277.582 74.9056 278.763C75.4962 279.944 75.5583 281.344 75.03 282.96C74.5016 284.546 73.6624 285.665 72.4813 286.287C71.3002 286.909 69.9637 287.002 68.4718 286.536C66.9489 286.069 65.9232 285.23 65.3015 284.08C64.6799 282.898 64.6488 281.53 65.1461 279.944ZM67.2907 280.535C66.9178 281.654 66.9178 282.587 67.2597 283.333C67.6016 284.08 68.1921 284.577 69.0002 284.826C69.8083 285.075 70.5854 285.012 71.3002 284.577C72.0151 284.173 72.5435 283.396 72.9164 282.245C73.2894 281.095 73.3205 280.193 72.9786 279.478C72.6367 278.763 72.0772 278.266 71.207 278.017C70.3678 277.737 69.5908 277.83 68.8759 278.234C68.1921 278.639 67.6637 279.385 67.2907 280.535Z" fill="#E5A724"/>
<path d="M76.1178 288.65L79.0084 278.639L81.0908 279.198L78.2002 289.21L76.1178 288.65Z" fill="#E5A724"/>
<path d="M87.2137 286.256C87.4624 285.23 87.8354 284.391 88.3016 283.769C88.6746 283.302 89.0786 282.929 89.607 282.587C90.1043 282.276 90.6327 282.059 91.1611 281.965C91.8759 281.841 92.653 281.872 93.4921 282.09C95.0151 282.432 96.134 283.178 96.8178 284.328C97.5016 285.479 97.657 286.847 97.284 288.495C96.88 290.142 96.134 291.293 95.0151 292.039C93.8962 292.754 92.5597 292.941 91.0367 292.599C89.4827 292.257 88.3948 291.51 87.68 290.391C86.9651 289.241 86.8097 287.842 87.2137 286.256ZM89.3894 286.66C89.1097 287.811 89.1719 288.743 89.5759 289.458C89.98 290.173 90.6016 290.64 91.4408 290.826C92.28 291.013 93.0259 290.889 93.7097 290.422C94.3935 289.956 94.8597 289.147 95.1395 287.966C95.4192 286.816 95.357 285.883 94.984 285.199C94.6111 284.515 93.9894 284.08 93.1192 283.862C92.2489 283.675 91.5029 283.8 90.8192 284.266C90.1354 284.701 89.6692 285.51 89.3894 286.66Z" fill="#E5A724"/>
<path d="M100.983 283.924L105.148 284.732C105.987 284.888 106.577 285.043 106.981 285.199C107.385 285.354 107.696 285.572 107.976 285.821C108.256 286.1 108.473 286.442 108.598 286.816C108.722 287.22 108.753 287.624 108.66 288.059C108.567 288.526 108.349 288.961 108.007 289.303C107.665 289.645 107.23 289.894 106.764 289.987C107.354 290.298 107.789 290.702 108.038 291.199C108.287 291.697 108.349 292.257 108.225 292.847C108.131 293.314 107.914 293.749 107.603 294.153C107.292 294.557 106.919 294.837 106.484 295.024C106.049 295.21 105.552 295.272 104.961 295.241C104.588 295.21 103.749 295.055 102.412 294.806L98.8692 294.122L100.983 283.924ZM101.915 290.08L101.356 292.816L103.314 293.189C104.06 293.345 104.557 293.407 104.775 293.407C105.085 293.407 105.396 293.314 105.614 293.158C105.862 292.972 106.018 292.723 106.08 292.35C106.142 292.039 106.111 291.759 106.018 291.51C105.925 291.262 105.707 291.075 105.458 290.92C105.179 290.764 104.588 290.609 103.625 290.422L101.915 290.08ZM102.723 286.038L102.226 288.401L103.594 288.681C104.402 288.837 104.93 288.93 105.117 288.961C105.489 288.992 105.8 288.93 106.049 288.774C106.298 288.619 106.453 288.37 106.515 288.028C106.577 287.717 106.546 287.437 106.391 287.22C106.267 287.002 106.018 286.816 105.676 286.691C105.458 286.629 104.868 286.505 103.873 286.287L102.723 286.038Z" fill="#E5A724"/>
<path d="M110.618 292.941L112.7 293.096C112.7 293.78 112.856 294.34 113.198 294.713C113.508 295.086 114.006 295.335 114.658 295.459C115.342 295.583 115.871 295.521 116.275 295.303C116.679 295.086 116.896 294.775 116.958 294.402C116.99 294.153 116.958 293.935 116.865 293.749C116.741 293.562 116.523 293.376 116.181 293.189C115.964 293.065 115.404 292.816 114.565 292.443C113.477 291.977 112.731 291.51 112.358 291.013C111.83 290.329 111.612 289.583 111.768 288.774C111.861 288.246 112.11 287.779 112.483 287.375C112.856 286.971 113.353 286.691 113.975 286.567C114.596 286.411 115.311 286.411 116.088 286.567C117.394 286.785 118.357 287.251 118.917 287.935C119.476 288.619 119.694 289.427 119.569 290.36L117.425 290.08C117.425 289.552 117.3 289.116 117.052 288.837C116.803 288.557 116.368 288.37 115.777 288.277C115.156 288.184 114.658 288.215 114.254 288.401C114.006 288.526 113.85 288.712 113.819 288.992C113.788 289.241 113.85 289.458 114.037 289.676C114.254 289.956 114.876 290.267 115.871 290.702C116.865 291.106 117.58 291.479 118.015 291.821C118.45 292.163 118.792 292.567 118.979 293.065C119.165 293.562 119.227 294.122 119.103 294.775C119.01 295.366 118.73 295.894 118.295 296.329C117.86 296.765 117.331 297.076 116.679 297.231C116.026 297.387 115.249 297.387 114.348 297.231C113.011 297.013 112.048 296.516 111.457 295.801C110.804 295.055 110.525 294.122 110.618 292.941Z" fill="#E5A724"/>
<path d="M123.765 298.537L125.102 289.987L121.994 289.521L122.273 287.779L130.634 289.023L130.354 290.764L127.246 290.298L125.91 298.848L123.765 298.537Z" fill="#E5A724"/>
<path d="M131.567 299.656L132.965 289.334L140.798 290.36L140.549 292.101L134.861 291.355L134.55 293.656L139.834 294.34L139.586 296.081L134.302 295.397L133.929 298.195L139.834 298.972L139.586 300.713L131.567 299.656Z" fill="#E5A724"/>
<path d="M144.869 301.335L145.895 292.754L142.756 292.412L142.973 290.64L151.365 291.604L151.148 293.345L148.009 293.003L147.014 301.584L144.869 301.335Z" fill="#E5A724"/>
<path d="M152.702 302.206L153.759 291.852L158.265 292.288C159.384 292.412 160.223 292.567 160.69 292.816C161.187 293.065 161.56 293.438 161.809 293.935C162.057 294.433 162.182 294.993 162.119 295.614C162.026 296.392 161.746 297.013 161.218 297.48C160.69 297.946 159.975 298.195 159.011 298.226C159.446 298.537 159.788 298.848 160.068 299.221C160.348 299.563 160.69 300.154 161.125 301.024L162.213 303.17L159.664 302.921L158.359 300.527C157.892 299.656 157.582 299.128 157.395 298.91C157.209 298.692 157.022 298.506 156.804 298.413C156.587 298.319 156.245 298.226 155.748 298.195L155.313 298.164L154.877 302.486L152.702 302.206ZM155.468 296.454L157.053 296.609C158.079 296.703 158.732 296.734 158.98 296.671C159.26 296.609 159.446 296.485 159.633 296.298C159.788 296.112 159.913 295.863 159.944 295.552C159.975 295.21 159.913 294.899 159.757 294.682C159.602 294.464 159.322 294.277 158.98 294.184C158.794 294.153 158.296 294.091 157.426 293.998L155.717 293.811L155.468 296.454Z" fill="#E5A724"/>
<path d="M164.388 303.294L165.321 292.909L167.465 293.096L166.564 303.48L164.388 303.294Z" fill="#E5A724"/>
<path d="M176.759 300.434L178.779 301.242C178.375 302.361 177.784 303.17 177.007 303.636C176.23 304.133 175.267 304.351 174.117 304.258C172.718 304.164 171.599 303.605 170.76 302.579C169.921 301.584 169.579 300.247 169.703 298.63C169.828 296.889 170.387 295.583 171.382 294.713C172.376 293.811 173.588 293.438 175.08 293.531C176.386 293.625 177.411 294.091 178.157 294.899C178.592 295.366 178.903 296.05 179.09 296.889L176.945 297.231C176.852 296.671 176.634 296.236 176.261 295.894C175.888 295.552 175.422 295.366 174.832 295.335C174.055 295.272 173.371 295.521 172.842 296.019C172.314 296.547 172.003 297.418 171.91 298.661C171.817 299.967 171.972 300.931 172.407 301.522C172.842 302.112 173.464 302.423 174.241 302.486C174.801 302.517 175.329 302.392 175.764 302.05C176.168 301.708 176.51 301.18 176.759 300.434Z" fill="#E5A724"/>
<path d="M181.11 301.18L183.224 301.086C183.317 301.77 183.534 302.299 183.907 302.641C184.28 302.983 184.778 303.17 185.43 303.201C186.114 303.232 186.642 303.138 187.015 302.859C187.388 302.579 187.575 302.268 187.606 301.895C187.606 301.646 187.544 301.428 187.419 301.242C187.295 301.055 187.046 300.9 186.674 300.744C186.425 300.651 185.865 300.465 184.995 300.185C183.876 299.843 183.068 299.439 182.633 299.003C182.011 298.381 181.732 297.666 181.794 296.858C181.825 296.329 182.011 295.832 182.353 295.397C182.695 294.961 183.161 294.619 183.752 294.433C184.342 294.215 185.057 294.153 185.865 294.184C187.202 294.246 188.196 294.619 188.818 295.21C189.471 295.832 189.751 296.609 189.751 297.573L187.606 297.542C187.544 297.013 187.357 296.609 187.078 296.361C186.798 296.112 186.332 295.956 185.741 295.925C185.119 295.894 184.622 295.987 184.249 296.205C184.001 296.361 183.876 296.547 183.876 296.827C183.845 297.076 183.969 297.293 184.156 297.48C184.405 297.729 185.057 297.977 186.083 298.288C187.109 298.599 187.855 298.879 188.352 299.159C188.849 299.439 189.222 299.812 189.471 300.278C189.719 300.744 189.844 301.304 189.782 301.957C189.751 302.548 189.533 303.107 189.16 303.605C188.787 304.102 188.29 304.475 187.668 304.693C187.046 304.911 186.269 305.004 185.337 304.942C184.001 304.848 182.975 304.506 182.291 303.854C181.545 303.263 181.172 302.33 181.11 301.18Z" fill="#E5A724"/>
<path d="M206.69 305.781L204.359 305.688L203.52 303.294L199.261 303.138L198.298 305.47L196.029 305.377L200.567 295.117L202.836 295.21L206.69 305.781ZM202.898 301.491L201.592 297.573L200.007 301.366L202.898 301.491Z" fill="#E5A724"/>
<path d="M209.021 305.843L209.27 295.428L211.352 295.49L215.548 302.548L215.703 295.614L217.693 295.645L217.444 306.061L215.299 305.999L211.165 299.128L211.01 305.906L209.021 305.843Z" fill="#E5A724"/>
<path d="M220.956 295.677L224.872 295.708C225.743 295.708 226.426 295.801 226.893 295.925C227.514 296.112 228.043 296.423 228.478 296.889C228.913 297.356 229.255 297.915 229.472 298.599C229.69 299.252 229.814 300.092 229.783 301.055C229.783 301.926 229.659 302.641 229.441 303.263C229.161 304.009 228.789 304.631 228.291 305.097C227.918 305.439 227.421 305.719 226.768 305.906C226.302 306.061 225.649 306.123 224.872 306.123L220.832 306.092L220.956 295.677ZM223.101 297.449L223.038 304.351H224.655C225.245 304.351 225.68 304.32 225.96 304.258C226.302 304.164 226.613 304.04 226.83 303.822C227.048 303.636 227.266 303.294 227.39 302.828C227.545 302.361 227.607 301.739 227.639 300.931C227.639 300.123 227.576 299.501 227.452 299.066C227.297 298.63 227.11 298.288 226.861 298.04C226.613 297.791 226.271 297.635 225.867 297.542C225.556 297.48 224.966 297.449 224.095 297.418L223.101 297.449Z" fill="#E5A724"/>
<path d="M242.837 302.268L242.806 300.527L247.437 300.465L247.499 304.6C247.064 305.035 246.412 305.408 245.572 305.75C244.733 306.092 243.863 306.248 242.993 306.279C241.874 306.279 240.91 306.061 240.071 305.626C239.232 305.19 238.61 304.538 238.175 303.698C237.74 302.859 237.522 301.926 237.522 300.931C237.522 299.843 237.74 298.879 238.175 298.04C238.641 297.2 239.294 296.547 240.195 296.081C240.879 295.739 241.718 295.552 242.744 295.521C244.08 295.521 245.106 295.77 245.852 296.298C246.598 296.827 247.095 297.573 247.313 298.537L245.199 298.941C245.044 298.444 244.764 298.04 244.329 297.729C243.925 297.449 243.397 297.293 242.775 297.293C241.843 297.293 241.097 297.604 240.537 298.195C239.978 298.786 239.729 299.656 239.729 300.807C239.729 302.05 240.04 302.952 240.599 303.574C241.159 304.196 241.905 304.475 242.806 304.475C243.241 304.475 243.708 304.382 244.143 304.196C244.578 304.009 244.982 303.791 245.293 303.543V302.237L242.837 302.268Z" fill="#E5A724"/>
<path d="M253.374 305.906L253.249 301.522L249.209 295.583L251.726 295.521L254.337 299.563L256.668 295.397L259.155 295.335L255.394 301.46L255.518 305.812L253.374 305.906Z" fill="#E5A724"/>
<path d="M261.641 305.688L261.206 295.272L263.289 295.179L267.92 301.957L267.64 295.024L269.629 294.93L270.064 305.315L267.92 305.408L263.351 298.786L263.631 305.564L261.641 305.688Z" fill="#E5A724"/>
<path d="M273.483 305.19L272.893 294.806L280.787 294.371L280.881 296.143L275.162 296.454L275.286 298.755L280.601 298.475L280.694 300.216L275.348 300.496L275.504 303.325L281.44 303.014L281.533 304.755L273.483 305.19Z" fill="#E5A724"/>
<path d="M291.044 300.309L293.158 300.807C292.909 301.957 292.443 302.828 291.759 303.449C291.044 304.04 290.143 304.382 288.993 304.475C287.594 304.569 286.382 304.196 285.418 303.294C284.455 302.423 283.895 301.149 283.771 299.532C283.647 297.791 284.02 296.423 284.859 295.428C285.698 294.402 286.879 293.842 288.371 293.749C289.677 293.656 290.764 293.967 291.604 294.651C292.132 295.055 292.536 295.677 292.816 296.485L290.733 297.138C290.578 296.609 290.267 296.205 289.863 295.925C289.459 295.645 288.962 295.521 288.371 295.552C287.594 295.614 286.972 295.925 286.506 296.516C286.04 297.107 285.885 298.008 285.978 299.252C286.071 300.558 286.382 301.491 286.91 302.019C287.439 302.548 288.091 302.765 288.868 302.734C289.428 302.703 289.925 302.486 290.298 302.112C290.64 301.646 290.92 301.086 291.044 300.309Z" fill="#E5A724"/>
<path d="M295.458 298.661C295.364 297.604 295.458 296.703 295.706 295.956C295.893 295.397 296.172 294.899 296.577 294.464C296.95 293.998 297.385 293.656 297.851 293.407C298.473 293.065 299.25 292.878 300.089 292.816C301.643 292.692 302.948 293.065 303.974 293.904C305 294.775 305.59 296.05 305.745 297.729C305.901 299.408 305.559 300.744 304.689 301.77C303.85 302.796 302.637 303.387 301.083 303.512C299.498 303.636 298.224 303.294 297.198 302.423C296.204 301.584 295.613 300.309 295.458 298.661ZM297.664 298.413C297.758 299.594 298.131 300.465 298.721 301.024C299.343 301.584 300.058 301.833 300.928 301.739C301.767 301.677 302.451 301.304 302.948 300.651C303.445 299.998 303.632 299.065 303.539 297.884C303.445 296.703 303.073 295.832 302.513 295.303C301.923 294.775 301.208 294.526 300.306 294.619C299.436 294.682 298.752 295.055 298.255 295.677C297.758 296.298 297.571 297.2 297.664 298.413Z" fill="#E5A724"/>
<path d="M309.071 302.641L307.983 292.381L310.128 292.163L311.029 300.682L316.344 300.154L316.531 301.895L309.071 302.641Z" fill="#E5A724"/>
<path d="M318.085 296.516C317.96 295.459 317.992 294.557 318.24 293.811C318.427 293.251 318.675 292.754 319.048 292.288C319.421 291.821 319.825 291.448 320.292 291.199C320.913 290.857 321.659 290.609 322.529 290.515C324.083 290.329 325.389 290.64 326.446 291.479C327.502 292.319 328.124 293.562 328.342 295.241C328.559 296.92 328.248 298.257 327.44 299.314C326.632 300.371 325.451 300.993 323.897 301.18C322.312 301.366 321.006 301.055 319.981 300.216C318.924 299.408 318.302 298.164 318.085 296.516ZM320.292 296.205C320.447 297.387 320.82 298.226 321.442 298.755C322.063 299.283 322.809 299.501 323.648 299.408C324.487 299.314 325.171 298.91 325.637 298.257C326.104 297.604 326.259 296.671 326.104 295.459C325.948 294.277 325.575 293.438 324.985 292.909C324.394 292.381 323.648 292.194 322.747 292.288C321.877 292.381 321.193 292.785 320.727 293.438C320.292 294.091 320.136 295.024 320.292 296.205Z" fill="#E5A724"/>
<path d="M336.05 295.552L335.801 293.811L340.37 293.158L340.96 297.262C340.588 297.76 339.997 298.195 339.189 298.661C338.381 299.097 337.573 299.376 336.702 299.501C335.615 299.656 334.62 299.563 333.719 299.221C332.848 298.879 332.133 298.319 331.574 297.542C331.046 296.765 330.704 295.863 330.548 294.899C330.393 293.842 330.486 292.847 330.828 291.946C331.17 291.044 331.729 290.298 332.569 289.738C333.19 289.303 333.998 289.023 335.024 288.868C336.329 288.681 337.386 288.805 338.194 289.241C339.002 289.676 339.593 290.36 339.935 291.262L337.883 291.946C337.666 291.448 337.324 291.106 336.858 290.857C336.392 290.609 335.863 290.547 335.273 290.64C334.34 290.764 333.656 291.168 333.19 291.821C332.724 292.474 332.569 293.376 332.755 294.495C332.942 295.708 333.346 296.609 333.998 297.138C334.651 297.666 335.428 297.884 336.329 297.76C336.765 297.697 337.2 297.542 337.635 297.324C338.07 297.076 338.412 296.827 338.692 296.547L338.505 295.241L336.05 295.552Z" fill="#E5A724"/>
<path d="M347.083 297.76L346.338 293.438L341.489 288.121L343.975 287.717L347.146 291.386L348.855 286.94L351.31 286.536L348.482 293.127L349.228 297.418L347.083 297.76Z" fill="#E5A724"/>
<path d="M360.169 295.49L358.055 285.292L360.169 284.857L361.008 288.868L365.142 288.059L364.302 284.049L366.416 283.613L368.529 293.811L366.416 294.246L365.484 289.8L361.35 290.609L362.282 295.055L360.169 295.49Z" fill="#E5A724"/>
<path d="M370.177 288.215C369.928 287.189 369.866 286.287 370.021 285.51C370.146 284.95 370.332 284.39 370.643 283.893C370.954 283.396 371.327 282.991 371.762 282.68C372.353 282.276 373.067 281.965 373.907 281.748C375.43 281.406 376.766 281.561 377.916 282.276C379.066 282.991 379.843 284.173 380.216 285.821C380.62 287.469 380.465 288.837 379.781 289.987C379.097 291.137 377.978 291.852 376.486 292.225C374.932 292.567 373.627 292.412 372.477 291.697C371.327 291.013 370.581 289.831 370.177 288.215ZM372.321 287.655C372.601 288.805 373.098 289.614 373.782 290.08C374.466 290.547 375.212 290.671 376.051 290.484C376.89 290.298 377.512 289.831 377.885 289.116C378.289 288.401 378.32 287.469 378.04 286.287C377.761 285.137 377.294 284.328 376.642 283.862C375.989 283.427 375.212 283.302 374.373 283.489C373.503 283.675 372.881 284.142 372.508 284.826C372.073 285.572 372.042 286.505 372.321 287.655Z" fill="#E5A724"/>
<path d="M382.827 287.033L384.785 286.287C385.096 286.909 385.469 287.344 385.935 287.531C386.401 287.748 386.93 287.748 387.551 287.593C388.204 287.406 388.67 287.127 388.95 286.785C389.198 286.411 389.292 286.038 389.167 285.665C389.105 285.417 388.981 285.261 388.794 285.106C388.608 284.981 388.328 284.888 387.924 284.888C387.644 284.857 387.054 284.888 386.153 284.888C384.971 284.919 384.101 284.795 383.542 284.515C382.765 284.142 382.236 283.551 382.019 282.743C381.863 282.245 381.894 281.717 382.05 281.188C382.205 280.66 382.547 280.224 383.044 279.82C383.542 279.447 384.163 279.136 384.971 278.918C386.246 278.576 387.303 278.576 388.111 278.95C388.919 279.323 389.478 279.976 389.758 280.877L387.707 281.53C387.458 281.033 387.178 280.722 386.836 280.566C386.494 280.411 385.997 280.411 385.438 280.597C384.847 280.753 384.412 281.002 384.132 281.344C383.946 281.561 383.915 281.81 383.977 282.059C384.039 282.307 384.194 282.463 384.443 282.587C384.754 282.743 385.469 282.774 386.525 282.743C387.613 282.712 388.421 282.743 388.981 282.867C389.54 282.991 390.007 283.209 390.411 283.582C390.815 283.924 391.094 284.422 391.281 285.075C391.436 285.634 391.436 286.225 391.25 286.816C391.063 287.406 390.721 287.904 390.193 288.308C389.665 288.712 388.95 289.054 388.08 289.272C386.774 289.614 385.717 289.614 384.847 289.21C383.946 288.868 383.293 288.121 382.827 287.033Z" fill="#E5A724"/>
<path d="M395.073 287.158L391.778 277.271L395.073 276.214C396.316 275.809 397.155 275.623 397.559 275.592C398.181 275.561 398.771 275.716 399.331 276.089C399.89 276.462 400.294 277.053 400.574 277.83C400.761 278.452 400.823 278.981 400.73 279.478C400.636 279.976 400.45 280.38 400.201 280.722C399.921 281.064 399.642 281.344 399.3 281.53C398.834 281.779 398.15 282.059 397.217 282.338L395.881 282.774L397.124 286.505L395.073 287.158ZM394.358 278.297L395.29 281.095L396.409 280.753C397.217 280.504 397.746 280.286 397.963 280.069C398.212 279.882 398.367 279.665 398.43 279.385C398.523 279.105 398.492 278.825 398.398 278.545C398.274 278.172 398.057 277.924 397.777 277.768C397.497 277.613 397.155 277.55 396.813 277.582C396.565 277.613 396.067 277.737 395.321 277.986L394.358 278.297Z" fill="#E5A724"/>
<path d="M405.578 283.707L401.88 273.944L403.9 273.229L407.599 282.991L405.578 283.707Z" fill="#E5A724"/>
<path d="M412.944 280.908L409.494 272.949L406.604 274.162L405.889 272.545L413.659 269.311L414.374 270.928L411.484 272.141L414.934 280.1L412.944 280.908Z" fill="#E5A724"/>
<path d="M427.926 273.788L425.843 274.846L423.885 273.167L420.124 275.094L420.466 277.582L418.446 278.608L417.14 267.508L419.161 266.482L427.926 273.788ZM422.455 271.954L419.316 269.218L419.876 273.291L422.455 271.954Z" fill="#E5A724"/>
<path d="M430.412 272.172L424.165 263.87L425.905 262.627L431.096 269.529L435.385 266.42L436.442 267.819L430.412 272.172Z" fill="#E5A724"/>
<path d="M256.637 110.187C241.376 131.889 217.32 141.589 202.867 131.889C188.414 122.157 189.067 96.6934 204.328 75.0229C219.588 53.3213 243.645 43.6208 258.098 53.3213C272.551 63.0217 271.898 88.4853 256.637 110.187Z" fill="url(#paint1_linear_3556_8827)"/>
<path d="M339.624 124.831C331.419 136.49 317.836 141.309 309.258 135.557C300.679 129.805 300.4 115.659 308.605 104C316.81 92.3406 330.393 87.5215 338.971 93.2734C347.55 99.0252 347.829 113.172 339.624 124.831Z" fill="url(#paint2_linear_3556_8827)"/>
<path d="M349.073 132.448C326.477 137.019 320.509 178.618 299.001 200.538C277.12 222.861 237.336 224.167 226.24 206.974C214.615 189.407 231.834 170.659 260.771 155.456C286.32 142.024 290.205 116.25 290.205 116.25L273.203 110.063C271.836 112.425 270.375 114.788 268.759 117.089C247.468 147.403 211.911 159.684 189.409 144.543C171.661 132.604 167.963 112.923 177.287 87.8946C132.25 93.7708 106.329 127.598 106.329 163.197C106.329 166.4 106.577 169.571 107.012 172.68C107.012 172.68 111.115 239.495 231.43 280.784C351.746 239.495 355.848 172.68 355.848 172.68C356.315 169.571 356.532 166.4 356.532 163.197C356.563 152.378 353.921 142.024 349.073 132.448Z" fill="url(#paint3_linear_3556_8827)"/>
<defs>
<linearGradient id="paint0_linear_3556_8827" x1="233.001" y1="318.447" x2="233.001" y2="184.664" gradientUnits="userSpaceOnUse">
<stop stop-color="#008242"/>
<stop offset="1" stop-color="#50B848"/>
</linearGradient>
<linearGradient id="paint1_linear_3556_8827" x1="256.946" y1="51.8479" x2="203.078" y2="134.695" gradientUnits="userSpaceOnUse">
<stop stop-color="#DBE120"/>
<stop offset="1" stop-color="#00984C"/>
</linearGradient>
<linearGradient id="paint2_linear_3556_8827" x1="338.991" y1="92.1093" x2="309.981" y2="135.611" gradientUnits="userSpaceOnUse">
<stop stop-color="#DBE120"/>
<stop offset="1" stop-color="#00984C"/>
</linearGradient>
<linearGradient id="paint3_linear_3556_8827" x1="250.279" y1="101.188" x2="198.837" y2="269.237" gradientUnits="userSpaceOnUse">
<stop stop-color="#7AC143"/>
<stop offset="1" stop-color="#00AD4D"/>
</linearGradient>
</defs>
</svg>
